<svg width="20" height="17" viewBox="0 0 20 17" fill="none" xmlns="http://www.w3.org/2000/svg">
<mask id="path-1-inside-1_105_374" fill="white">
<path fill-rule="evenodd" clip-rule="evenodd" d="M18.94 7.76035C19.5179 7.36 19.5179 6.50568 18.94 6.10532L10.3889 0.18094C9.72123 -0.281625 8.80885 0.196216 8.80885 1.00845V3.03181L7.25241 3.18745C3.13533 3.59916 5.95249e-05 7.0636 5.95249e-05 11.2012V17L1.52125 14.5661C3.09241 12.0522 5.89916 10.627 8.80885 10.7937V12.8572C8.80885 13.6695 9.72123 14.1473 10.3889 13.6847L18.94 7.76035Z"/>
</mask>
<path d="M18.94 6.10532L19.8 4.86405H19.8L18.94 6.10532ZM18.94 7.76035L18.08 6.51908L18.94 7.76035ZM10.3889 0.18094L11.2489 -1.06033L11.2489 -1.06033L10.3889 0.18094ZM8.80885 3.03181H10.3189V4.39841L8.95911 4.53439L8.80885 3.03181ZM7.25241 3.18745L7.10216 1.68487L7.25241 3.18745ZM5.95249e-05 17L1.2806 17.8003L-1.51002 22.2653V17H5.95249e-05ZM1.52125 14.5661L0.240705 13.7658V13.7658L1.52125 14.5661ZM8.80885 10.7937L8.8952 9.28605L10.3189 9.36758V10.7937H8.80885ZM10.3889 13.6847L11.2489 14.926L11.2489 14.926L10.3889 13.6847ZM19.8 4.86405C21.2446 5.86494 21.2446 8.00074 19.8 9.00163L18.08 6.51908C17.7911 6.71926 17.7911 7.14642 18.08 7.3466L19.8 4.86405ZM11.2489 -1.06033L19.8 4.86405L18.08 7.3466L9.52891 1.42221L11.2489 -1.06033ZM7.29878 1.00845C7.29878 -1.02215 9.57973 -2.21674 11.2489 -1.06033L9.52891 1.42221C9.86273 1.65349 10.3189 1.41458 10.3189 1.00845H7.29878ZM7.29878 3.03181V1.00845H10.3189V3.03181H7.29878ZM7.10216 1.68487L8.6586 1.52923L8.95911 4.53439L7.40267 4.69003L7.10216 1.68487ZM-1.51002 11.2012C-1.51002 6.28779 2.21312 2.17377 7.10216 1.68487L7.40267 4.69003C4.05754 5.02454 1.51013 7.8394 1.51013 11.2012H-1.51002ZM-1.51002 17V11.2012H1.51013V17H-1.51002ZM2.80179 15.3664L1.2806 17.8003L-1.28048 16.1997L0.240705 13.7658L2.80179 15.3664ZM8.72251 12.3013C6.35875 12.1659 4.07819 13.3242 2.80179 15.3664L0.240705 13.7658C2.10662 10.7803 5.43956 9.08814 8.8952 9.28605L8.72251 12.3013ZM7.29878 12.8572V10.7937H10.3189V12.8572H7.29878ZM11.2489 14.926C9.57973 16.0824 7.29878 14.8878 7.29878 12.8572H10.3189C10.3189 12.4511 9.86274 12.2122 9.52891 12.4435L11.2489 14.926ZM19.8 9.00163L11.2489 14.926L9.52891 12.4435L18.08 6.51908L19.8 9.00163Z" fill="white" mask="url(#path-1-inside-1_105_374)"/>
</svg>
