<svg width="7" height="7" viewBox="0 0 7 7" fill="none" xmlns="http://www.w3.org/2000/svg">
<path d="M3.18613 0.22795C3.28493 -0.0760993 3.71507 -0.0760983 3.81387 0.227951L4.41382 2.07443C4.458 2.2104 4.58472 2.30247 4.72769 2.30247H6.66919C6.98889 2.30247 7.12181 2.71156 6.86317 2.89947L5.29246 4.04066C5.1768 4.1247 5.1284 4.27366 5.17258 4.40963L5.77253 6.25611C5.87132 6.56016 5.52333 6.81299 5.26469 6.62508L3.69398 5.48389C3.57831 5.39986 3.42169 5.39986 3.30602 5.48389L1.73531 6.62508C1.47667 6.81299 1.12868 6.56016 1.22747 6.25611L1.82742 4.40963C1.8716 4.27366 1.8232 4.1247 1.70754 4.04066L0.136829 2.89947C-0.121811 2.71156 0.0111134 2.30247 0.33081 2.30247H2.27231C2.41528 2.30247 2.542 2.2104 2.58618 2.07443L3.18613 0.22795Z" fill="white"/>
</svg>
