<svg width="18" height="18" viewBox="0 0 18 18" fill="none" xmlns="http://www.w3.org/2000/svg">
<path d="M8.04601 1.2375C8.16604 0.589997 9.09383 0.589992 9.21386 1.2375C9.51714 2.8735 11.5132 3.52208 12.7202 2.37678C13.1979 1.92349 13.9485 2.46884 13.665 3.06323C12.9488 4.56505 14.1824 6.26303 15.8321 6.04591C16.485 5.95997 16.7717 6.84236 16.193 7.1566C14.7307 7.95059 14.7307 10.0494 16.193 10.8434C16.7717 11.1576 16.485 12.04 15.8321 11.9541C14.1824 11.737 12.9488 13.435 13.665 14.9368C13.9485 15.5312 13.1979 16.0765 12.7202 15.6232C11.5132 14.4779 9.51714 15.1265 9.21386 16.7625C9.09383 17.41 8.16604 17.41 8.04601 16.7625C7.74273 15.1265 5.74663 14.4779 4.53966 15.6232C4.06196 16.0765 3.31136 15.5312 3.59485 14.9368C4.31111 13.435 3.07745 11.737 1.4278 11.9541C0.774899 12.04 0.488193 11.1576 1.06692 10.8434C2.52913 10.0494 2.52913 7.95059 1.06692 7.1566C0.488195 6.84236 0.774895 5.95997 1.4278 6.04591C3.07745 6.26303 4.31111 4.56505 3.59485 3.06323C3.31136 2.46883 4.06196 1.92349 4.53966 2.37678C5.74664 3.52208 7.74273 2.87351 8.04601 1.2375Z" stroke="white" stroke-width="1.5"/>
</svg>
