<svg width="15" height="14" viewBox="0 0 15 14" fill="none" xmlns="http://www.w3.org/2000/svg">
<path d="M6.54236 1.31066C6.77436 0.59662 7.78455 0.59662 8.01655 1.31066L8.67243 3.32925C8.9837 4.28724 9.87643 4.93585 10.8837 4.93585H13.0062C13.757 4.93585 14.0691 5.89659 13.4617 6.33789L11.7446 7.58544C10.9297 8.17751 10.5887 9.22699 10.9 10.185L11.5559 12.2036C11.7879 12.9176 10.9706 13.5114 10.3632 13.0701L8.64611 11.8225C7.83119 11.2304 6.72772 11.2304 5.9128 11.8225L4.19569 13.0701C3.58829 13.5114 2.77103 12.9176 3.00304 12.2036L3.65892 10.185C3.97019 9.22699 3.6292 8.17751 2.81428 7.58544L1.09717 6.33789C0.489769 5.89659 0.801933 4.93585 1.55272 4.93585L3.67519 4.93585C4.68248 4.93585 5.57521 4.28724 5.88648 3.32925L6.54236 1.31066Z" stroke="white" stroke-width="1.5"/>
</svg>
